<?xml version="1.0" standalone="no"?>
<!DOCTYPE svg PUBLIC "-//W3C//DTD SVG 1.1//EN"
   "http://www.w3.org/Graphics/SVG/1.1/DTD/svg11.dtd">
<svg width="1060" height="118" version="1.1"
   xmlns="http://www.w3.org/2000/svg">
   <desc>https://pruthvik-sheth-2d.vercel.app/projects
   </desc>

   <g id="barcode" fill="#000000">
      <rect x="0" y="0" width="1060" height="118" fill="#FFFFFF" />
      <rect x="0.00" y="0.00" width="4.00" height="100.00" />
      <rect x="6.00" y="0.00" width="2.00" height="100.00" />
      <rect x="12.00" y="0.00" width="2.00" height="100.00" />
      <rect x="22.00" y="0.00" width="2.00" height="100.00" />
      <rect x="28.00" y="0.00" width="4.00" height="100.00" />
      <rect x="40.00" y="0.00" width="2.00" height="100.00" />
      <rect x="44.00" y="0.00" width="2.00" height="100.00" />
      <rect x="50.00" y="0.00" width="8.00" height="100.00" />
      <rect x="60.00" y="0.00" width="2.00" height="100.00" />
      <rect x="66.00" y="0.00" width="2.00" height="100.00" />
      <rect x="72.00" y="0.00" width="8.00" height="100.00" />
      <rect x="82.00" y="0.00" width="2.00" height="100.00" />
      <rect x="88.00" y="0.00" width="2.00" height="100.00" />
      <rect x="92.00" y="0.00" width="2.00" height="100.00" />
      <rect x="98.00" y="0.00" width="8.00" height="100.00" />
      <rect x="110.00" y="0.00" width="2.00" height="100.00" />
      <rect x="114.00" y="0.00" width="8.00" height="100.00" />
      <rect x="126.00" y="0.00" width="2.00" height="100.00" />
      <rect x="132.00" y="0.00" width="6.00" height="100.00" />
      <rect x="142.00" y="0.00" width="2.00" height="100.00" />
      <rect x="148.00" y="0.00" width="4.00" height="100.00" />
      <rect x="154.00" y="0.00" width="2.00" height="100.00" />
      <rect x="158.00" y="0.00" width="6.00" height="100.00" />
      <rect x="168.00" y="0.00" width="4.00" height="100.00" />
      <rect x="176.00" y="0.00" width="2.00" height="100.00" />
      <rect x="180.00" y="0.00" width="6.00" height="100.00" />
      <rect x="190.00" y="0.00" width="4.00" height="100.00" />
      <rect x="198.00" y="0.00" width="2.00" height="100.00" />
      <rect x="202.00" y="0.00" width="2.00" height="100.00" />
      <rect x="208.00" y="0.00" width="8.00" height="100.00" />
      <rect x="220.00" y="0.00" width="2.00" height="100.00" />
      <rect x="226.00" y="0.00" width="2.00" height="100.00" />
      <rect x="232.00" y="0.00" width="8.00" height="100.00" />
      <rect x="242.00" y="0.00" width="2.00" height="100.00" />
      <rect x="248.00" y="0.00" width="8.00" height="100.00" />
      <rect x="260.00" y="0.00" width="2.00" height="100.00" />
      <rect x="264.00" y="0.00" width="2.00" height="100.00" />
      <rect x="270.00" y="0.00" width="8.00" height="100.00" />
      <rect x="280.00" y="0.00" width="2.00" height="100.00" />
      <rect x="286.00" y="0.00" width="2.00" height="100.00" />
      <rect x="292.00" y="0.00" width="4.00" height="100.00" />
      <rect x="304.00" y="0.00" width="2.00" height="100.00" />
      <rect x="308.00" y="0.00" width="8.00" height="100.00" />
      <rect x="318.00" y="0.00" width="2.00" height="100.00" />
      <rect x="324.00" y="0.00" width="2.00" height="100.00" />
      <rect x="330.00" y="0.00" width="2.00" height="100.00" />
      <rect x="340.00" y="0.00" width="4.00" height="100.00" />
      <rect x="346.00" y="0.00" width="2.00" height="100.00" />
      <rect x="352.00" y="0.00" width="4.00" height="100.00" />
      <rect x="364.00" y="0.00" width="2.00" height="100.00" />
      <rect x="370.00" y="0.00" width="2.00" height="100.00" />
      <rect x="374.00" y="0.00" width="2.00" height="100.00" />
      <rect x="380.00" y="0.00" width="4.00" height="100.00" />
      <rect x="386.00" y="0.00" width="6.00" height="100.00" />
      <rect x="396.00" y="0.00" width="2.00" height="100.00" />
      <rect x="400.00" y="0.00" width="8.00" height="100.00" />
      <rect x="412.00" y="0.00" width="2.00" height="100.00" />
      <rect x="418.00" y="0.00" width="2.00" height="100.00" />
      <rect x="424.00" y="0.00" width="4.00" height="100.00" />
      <rect x="436.00" y="0.00" width="2.00" height="100.00" />
      <rect x="440.00" y="0.00" width="2.00" height="100.00" />
      <rect x="444.00" y="0.00" width="4.00" height="100.00" />
      <rect x="452.00" y="0.00" width="2.00" height="100.00" />
      <rect x="462.00" y="0.00" width="2.00" height="100.00" />
      <rect x="468.00" y="0.00" width="8.00" height="100.00" />
      <rect x="478.00" y="0.00" width="2.00" height="100.00" />
      <rect x="484.00" y="0.00" width="2.00" height="100.00" />
      <rect x="490.00" y="0.00" width="4.00" height="100.00" />
      <rect x="502.00" y="0.00" width="2.00" height="100.00" />
      <rect x="506.00" y="0.00" width="2.00" height="100.00" />
      <rect x="512.00" y="0.00" width="4.00" height="100.00" />
      <rect x="518.00" y="0.00" width="6.00" height="100.00" />
      <rect x="528.00" y="0.00" width="4.00" height="100.00" />
      <rect x="536.00" y="0.00" width="6.00" height="100.00" />
      <rect x="546.00" y="0.00" width="2.00" height="100.00" />
      <rect x="550.00" y="0.00" width="2.00" height="100.00" />
      <rect x="560.00" y="0.00" width="2.00" height="100.00" />
      <rect x="566.00" y="0.00" width="4.00" height="100.00" />
      <rect x="572.00" y="0.00" width="2.00" height="100.00" />
      <rect x="578.00" y="0.00" width="4.00" height="100.00" />
      <rect x="586.00" y="0.00" width="6.00" height="100.00" />
      <rect x="594.00" y="0.00" width="8.00" height="100.00" />
      <rect x="604.00" y="0.00" width="2.00" height="100.00" />
      <rect x="610.00" y="0.00" width="2.00" height="100.00" />
      <rect x="616.00" y="0.00" width="2.00" height="100.00" />
      <rect x="620.00" y="0.00" width="4.00" height="100.00" />
      <rect x="628.00" y="0.00" width="2.00" height="100.00" />
      <rect x="638.00" y="0.00" width="2.00" height="100.00" />
      <rect x="644.00" y="0.00" width="2.00" height="100.00" />
      <rect x="650.00" y="0.00" width="8.00" height="100.00" />
      <rect x="660.00" y="0.00" width="2.00" height="100.00" />
      <rect x="670.00" y="0.00" width="2.00" height="100.00" />
      <rect x="674.00" y="0.00" width="4.00" height="100.00" />
      <rect x="682.00" y="0.00" width="2.00" height="100.00" />
      <rect x="686.00" y="0.00" width="4.00" height="100.00" />
      <rect x="694.00" y="0.00" width="2.00" height="100.00" />
      <rect x="704.00" y="0.00" width="4.00" height="100.00" />
      <rect x="712.00" y="0.00" width="2.00" height="100.00" />
      <rect x="716.00" y="0.00" width="2.00" height="100.00" />
      <rect x="726.00" y="0.00" width="2.00" height="100.00" />
      <rect x="732.00" y="0.00" width="4.00" height="100.00" />
      <rect x="740.00" y="0.00" width="6.00" height="100.00" />
      <rect x="748.00" y="0.00" width="2.00" height="100.00" />
      <rect x="754.00" y="0.00" width="2.00" height="100.00" />
      <rect x="758.00" y="0.00" width="4.00" height="100.00" />
      <rect x="770.00" y="0.00" width="2.00" height="100.00" />
      <rect x="774.00" y="0.00" width="2.00" height="100.00" />
      <rect x="780.00" y="0.00" width="8.00" height="100.00" />
      <rect x="792.00" y="0.00" width="2.00" height="100.00" />
      <rect x="796.00" y="0.00" width="2.00" height="100.00" />
      <rect x="802.00" y="0.00" width="8.00" height="100.00" />
      <rect x="814.00" y="0.00" width="2.00" height="100.00" />
      <rect x="818.00" y="0.00" width="6.00" height="100.00" />
      <rect x="828.00" y="0.00" width="4.00" height="100.00" />
      <rect x="836.00" y="0.00" width="2.00" height="100.00" />
      <rect x="840.00" y="0.00" width="2.00" height="100.00" />
      <rect x="846.00" y="0.00" width="8.00" height="100.00" />
      <rect x="858.00" y="0.00" width="2.00" height="100.00" />
      <rect x="864.00" y="0.00" width="2.00" height="100.00" />
      <rect x="870.00" y="0.00" width="8.00" height="100.00" />
      <rect x="880.00" y="0.00" width="2.00" height="100.00" />
      <rect x="888.00" y="0.00" width="8.00" height="100.00" />
      <rect x="898.00" y="0.00" width="2.00" height="100.00" />
      <rect x="902.00" y="0.00" width="2.00" height="100.00" />
      <rect x="912.00" y="0.00" width="4.00" height="100.00" />
      <rect x="920.00" y="0.00" width="2.00" height="100.00" />
      <rect x="924.00" y="0.00" width="2.00" height="100.00" />
      <rect x="928.00" y="0.00" width="4.00" height="100.00" />
      <rect x="936.00" y="0.00" width="2.00" height="100.00" />
      <rect x="946.00" y="0.00" width="2.00" height="100.00" />
      <rect x="956.00" y="0.00" width="2.00" height="100.00" />
      <rect x="960.00" y="0.00" width="4.00" height="100.00" />
      <rect x="968.00" y="0.00" width="2.00" height="100.00" />
      <rect x="974.00" y="0.00" width="8.00" height="100.00" />
      <rect x="984.00" y="0.00" width="2.00" height="100.00" />
      <rect x="990.00" y="0.00" width="2.00" height="100.00" />
      <rect x="994.00" y="0.00" width="8.00" height="100.00" />
      <rect x="1006.00" y="0.00" width="2.00" height="100.00" />
      <rect x="1012.00" y="0.00" width="4.00" height="100.00" />
      <rect x="1020.00" y="0.00" width="6.00" height="100.00" />
      <rect x="1030.00" y="0.00" width="2.00" height="100.00" />
      <rect x="1034.00" y="0.00" width="4.00" height="100.00" />
      <rect x="1044.00" y="0.00" width="6.00" height="100.00" />
      <rect x="1052.00" y="0.00" width="2.00" height="100.00" />
      <rect x="1056.00" y="0.00" width="4.00" height="100.00" />
      <text x="530.00" y="118.00" text-anchor="middle"
         font-family="Helvetica" font-size="16.0" fill="#000000" >
         https://pruthvik-sheth-2d.vercel.app/projects
      </text>
   </g>
</svg>
